<?xml version="1.0" encoding="utf-8"?>

<!-- License Agreement at http://iconmonstr.com/license/ -->

<!DOCTYPE svg PUBLIC "-//W3C//DTD SVG 1.1//EN" "http://www.w3.org/Graphics/SVG/1.1/DTD/svg11.dtd">
<svg version="1.1" xmlns="http://www.w3.org/2000/svg" xmlns:xlink="http://www.w3.org/1999/xlink" x="0px" y="0px"
	 width="512px" height="512px" viewBox="0 0 512 512" enable-background="new 0 0 512 512" xml:space="preserve">
<path id="headphones-5-icon" d="M431.022,462H80.978c0-47.982-3.857-74.427,46.301-85.995
	c49.099-11.324,97.562-21.448,74.266-64.355c-69.045-127.15-19.687-199.237,54.458-199.237c72.71,0,123.313,69.423,54.458,199.237
	c-22.62,42.647,24.087,52.782,74.266,64.355C434.882,387.573,431.022,414.018,431.022,462z M360.353,217.828
	c-1.118,11.757-3.477,24.029-7.041,36.757h21.805c12.48,0,22.599-10.118,22.599-22.599v-55.851
	c0-12.481-10.118-22.599-22.599-22.599h-23.354C359.765,172.029,362.656,193.587,360.353,217.828z M255.7,83.009
	c38.612-0.079,75.164,18.845,90.684,53.092h19.381C351.891,85.778,310.562,50,255.7,50c-54.866,0-96.192,35.778-110.066,86.101
	h19.379C180.532,101.854,217.084,82.93,255.7,83.009z M113.684,231.986c0,12.481,10.118,22.599,22.599,22.599h21.961
	c-3.476-12.319-5.794-24.239-6.934-35.71c-2.444-24.616,0.507-46.525,8.742-65.339h-23.77c-12.48,0-22.599,10.118-22.599,22.599
	V231.986z"/>
</svg>
